<svg width="229" height="47" viewBox="0 0 229 47" fill="none" xmlns="http://www.w3.org/2000/svg">
<path d="M2.55 37.25C1.41667 36.7167 0.85 35.9167 0.85 34.85C0.85 34.5167 0.9 34.1833 1 33.85C1.26667 32.65 1.75 30.9333 2.45 28.7C3.18333 26.4667 3.83333 24.7833 4.4 23.65C4.63333 23.25 4.81667 22.8333 4.95 22.4C5.08333 21.9667 5.16667 21.6833 5.2 21.55C5.36667 20.95 5.46667 20.6 5.5 20.5L5.45 20C5.45 19.8667 5.48333 19.7333 5.55 19.6C5.61667 19.4667 5.73333 19.3167 5.9 19.15C6.36667 18.75 6.86667 17.9667 7.4 16.8L9.3 11.35L9.9 9.65C9.93333 9.51667 10 9.28333 10.1 8.95C10.2 8.61667 10.25 8.38333 10.25 8.25C10.25 8.11667 10.2167 8.05 10.15 8.05C9.88333 8.11667 9.35 8.16666 8.55 8.2C8.15 8.26667 7.85 8.31667 7.65 8.35C7.45 8.35 7.3 8.36666 7.2 8.4H6.85C6.21667 8.4 5.9 8.16666 5.9 7.7C6 7.1 6.2 6.53333 6.5 6C6.83333 5.46666 7.23333 5.18333 7.7 5.15L9.65 4.7C9.95 4.63333 10.3667 4.6 10.9 4.6C11.3667 4.6 11.85 4.65 12.35 4.75C12.75 4.48333 12.9667 4.25 13 4.05C13.1333 3.48333 13.4333 3.03333 13.9 2.7C14.3667 2.36666 14.85 2.2 15.35 2.2C15.75 2.2 16.0833 2.31666 16.35 2.55C16.6167 2.75 16.75 3.06666 16.75 3.5C16.75 3.7 16.7333 3.85 16.7 3.95C16.7 3.98333 16.7 4.05 16.7 4.15C16.7 4.21666 16.8 4.25 17 4.25C17.3333 4.25 18.3167 4.06666 19.95 3.7C20.2167 3.66667 20.6667 3.63333 21.3 3.6C21.9667 3.53333 22.5167 3.5 22.95 3.5C23.5833 3.5 24.0667 3.55 24.4 3.65C24.7 3.58333 24.9667 3.55 25.2 3.55C25.4333 3.55 25.6333 3.53333 25.8 3.5C26.3667 3.5 26.7167 3.45 26.85 3.35C27.15 3.41666 27.4833 3.48333 27.85 3.55C28.25 3.58333 28.5333 3.63333 28.7 3.7C28.8667 3.76666 29.0167 3.85 29.15 3.95C29.25 4.08333 29.3 4.2 29.3 4.3C29.3 4.4 29.2833 4.46666 29.25 4.5L29.15 4.45C29.1833 4.45 29.2333 4.48333 29.3 4.55C29.4 4.58333 29.5 4.65 29.6 4.75C29.8667 4.88333 30 5.21666 30 5.75C30 6.15 29.9333 6.55 29.8 6.95C29.7667 7.15 29.6833 7.3 29.55 7.4C29.45 7.46666 29.1833 7.51666 28.75 7.55C28.3167 7.55 27.75 7.53333 27.05 7.5C25.7833 7.33333 24.7333 7.25 23.9 7.25C22.7333 7.25 20.9333 7.41667 18.5 7.75C17.9 7.78333 17.3333 7.86667 16.8 8C16.3 8.13333 15.9833 8.21666 15.85 8.25C15.6833 8.25 15.4333 8.5 15.1 9C14.7667 9.5 14.4667 10.1333 14.2 10.9C14 11.2 13.3833 12.65 12.35 15.25C11.55 17.1167 11.15 18.05 11.15 18.05C11.55 18.1833 12.3167 18.25 13.45 18.25C14.95 18.25 17.1333 18.1167 20 17.85C21.3 17.5833 22.1833 17.4833 22.65 17.55C22.95 17.5833 23.2 17.8 23.4 18.2C23.6333 18.5667 23.75 18.9833 23.75 19.45C23.75 19.7833 23.6833 20.0833 23.55 20.35C23.4167 20.6167 23.2333 20.8167 23 20.95C22.3 21.3833 20.85 21.7167 18.65 21.95C17.1833 22.0833 15.1667 22.15 12.6 22.15C11.2333 22.15 10.4167 22.1167 10.15 22.05C10.0833 22.0833 9.98333 22.1833 9.85 22.35C9.75 22.5167 9.7 22.7167 9.7 22.95C9.1 24.05 8.25 26 7.15 28.8C6.08333 31.6 5.55 33.3 5.55 33.9C5.31667 34.5 5.13333 35.1833 5 35.95C4.96667 36.0833 4.91667 36.2667 4.85 36.5C4.78333 36.7333 4.71667 36.8833 4.65 36.95C4.55 37.45 4.21667 37.7 3.65 37.7C3.18333 37.7 2.81667 37.55 2.55 37.25Z" fill="#A259FF"/>
<path d="M30.841 15.1C30.5077 14.8667 30.241 14.5667 30.041 14.2C29.841 13.8333 29.7243 13.4833 29.691 13.15C29.6577 12.8167 29.691 12.6167 29.791 12.55C29.991 12.3167 30.191 12 30.391 11.6C30.591 11.2 30.741 10.9167 30.841 10.75C31.1077 10.15 31.3243 9.71667 31.491 9.45C31.7243 8.98333 31.941 8.73333 32.141 8.7C32.4077 8.56667 32.6243 8.5 32.791 8.5C33.2243 8.5 33.691 8.65 34.191 8.95C34.7243 9.25 35.1243 9.6 35.391 10C35.6243 10.5333 35.741 11 35.741 11.4C35.741 12.2 35.3577 13.0833 34.591 14.05C34.2577 14.4833 33.8577 14.8167 33.391 15.05C32.9243 15.2833 32.4577 15.4 31.991 15.4C31.5243 15.4 31.141 15.3 30.841 15.1ZM25.441 35.15C24.9743 34.6833 24.741 33.85 24.741 32.65C24.741 32.0167 24.8243 31.5333 24.991 31.2C24.991 31.0333 25.0243 30.8333 25.091 30.6C25.1577 30.3667 25.191 30.2167 25.191 30.15C25.1577 29.95 25.291 29.4 25.591 28.5C25.991 27.6 26.491 26.2167 27.091 24.35C27.7243 22.4833 28.1577 21.15 28.391 20.35C28.391 20.1833 28.4577 20.05 28.591 19.95C28.7243 19.8167 28.9243 19.7333 29.191 19.7C29.5577 19.5667 30.0243 19.7333 30.591 20.2C31.1577 20.6333 31.6243 21.1333 31.991 21.7C32.191 21.9 32.291 22.1667 32.291 22.5C32.291 23 32.0743 23.7 31.641 24.6C31.4743 24.9667 31.3077 25.4167 31.141 25.95C31.0077 26.4833 30.891 26.9833 30.791 27.45C30.391 28.35 30.0743 29.1833 29.841 29.95C29.741 30.3833 29.6743 30.7167 29.641 30.95C29.4077 32.1833 29.191 32.9833 28.991 33.35C28.791 34.1833 28.5077 34.8167 28.141 35.25C27.7743 35.65 27.3577 35.85 26.891 35.85C26.3243 35.85 25.841 35.6167 25.441 35.15Z" fill="#0ACF83"/>
<path d="M51.1555 21.15C51.2888 21.4167 51.3555 21.75 51.3555 22.15C51.3555 22.9167 51.1055 23.6333 50.6055 24.3C50.5055 24.4667 50.3221 24.7333 50.0555 25.1C49.7888 25.4333 49.5555 25.7833 49.3555 26.15C49.1555 26.5167 49.0055 26.9333 48.9055 27.4C48.8055 28.0333 48.6055 28.8 48.3055 29.7C48.0388 30.5667 47.8555 31.15 47.7555 31.45C47.4888 32.15 47.1888 33.0833 46.8555 34.25L46.0555 37.35C45.3221 39.8833 44.4721 41.8333 43.5055 43.2C42.5388 44.6 41.6388 45.5333 40.8055 46C40.3721 46.1667 39.9555 46.25 39.5555 46.25C38.8221 46.25 38.0555 46 37.2555 45.5C36.4888 45.0333 35.8221 44.3833 35.2555 43.55C34.8888 43.05 34.4221 42.1 33.8555 40.7C33.2888 39.3333 33.1055 38.6 33.3055 38.5C33.4388 38.0333 33.9221 37.8 34.7555 37.8C35.1555 37.8 35.5221 37.85 35.8555 37.95C36.1888 38.0833 36.3721 38.2333 36.4055 38.4C36.7055 39.2667 37.0721 39.9333 37.5055 40.4C37.7721 40.8333 38.0555 41.1667 38.3555 41.4C38.6888 41.6333 39.0055 41.75 39.3055 41.75C39.5055 41.75 39.6388 41.7167 39.7055 41.65C40.2388 41.25 40.6388 40.7667 40.9055 40.2C41.2055 39.6333 41.6055 38.5833 42.1055 37.05C42.8721 34.3833 43.4721 32.4833 43.9055 31.35C44.0055 30.9833 44.1721 30.5667 44.4055 30.1L43.5055 30.8C43.1721 31.0667 42.8055 31.35 42.4055 31.65C42.0055 31.9167 41.5721 32.15 41.1055 32.35C40.8721 32.65 40.2888 32.8 39.3555 32.8C38.6555 32.8 37.9888 32.7 37.3555 32.5C36.7221 32.1667 36.2388 31.7833 35.9055 31.35C35.6055 30.9167 35.2888 30.2667 34.9555 29.4C34.8221 29.1333 34.7555 28.7167 34.7555 28.15C34.7555 26.7167 35.0888 25.1833 35.7555 23.55C36.3888 22.25 37.3888 20.8667 38.7555 19.4C40.1221 17.9333 41.3055 17.05 42.3055 16.75C43.1055 16.35 43.9388 16.15 44.8055 16.15C45.1721 16.15 45.4388 16.1833 45.6055 16.25C46.1388 16.3167 46.5555 16.4333 46.8555 16.6C47.1555 16.7667 47.6555 17.15 48.3555 17.75C49.9555 19.35 50.8888 20.4833 51.1555 21.15ZM44.3555 25.85C44.9555 25.0167 45.3555 24.2667 45.5555 23.6C45.7888 22.9333 45.8721 22.2 45.8055 21.4C45.7721 20.5667 45.4055 20.15 44.7055 20.15C44.0055 20.15 43.3888 20.35 42.8555 20.75C42.3555 21.15 41.6888 21.8667 40.8555 22.9C40.3555 23.5667 39.9388 24.3667 39.6055 25.3C39.3055 26.1333 39.1555 26.85 39.1555 27.45C39.1555 28.1833 39.3555 28.6333 39.7555 28.8C40.8221 28.7667 41.6555 28.5833 42.2555 28.25C42.8555 27.9167 43.5555 27.1167 44.3555 25.85Z" fill="#F24E1E"/>
<path d="M77.2684 34.85C76.835 34.85 76.5017 34.7833 76.2684 34.65C76.0017 34.55 75.6517 34.3167 75.2184 33.95C74.8184 33.55 74.4517 33 74.1184 32.3C73.8184 31.5667 73.6684 30.7 73.6684 29.7C73.6684 29.0667 73.7017 28.5167 73.7684 28.05C73.8684 27.55 73.9184 27.2333 73.9184 27.1C73.9184 26.9333 73.8684 26.85 73.7684 26.85C72.9017 26.85 71.0184 28.4333 68.1184 31.6C68.0184 31.6667 67.935 31.75 67.8684 31.85C67.4684 32.15 67.1017 32.4667 66.7684 32.8C66.2684 33.2667 65.8517 33.6167 65.5184 33.85C65.2184 34.05 64.885 34.1667 64.5184 34.2C64.285 34.2 64.035 34.1 63.7684 33.9L63.2184 33.45C63.0517 33.35 62.9017 33.1667 62.7684 32.9C62.635 32.6333 62.5684 32.3833 62.5684 32.15V32V31.9L63.7184 28.55C64.5517 26.7167 64.9684 25.6333 64.9684 25.3C64.9684 25.2333 64.9517 25.2 64.9184 25.2C64.6184 25.1667 64.1684 25.4333 63.5684 26C63.0017 26.5333 62.185 27.3833 61.1184 28.55L58.8684 30.9C58.6017 31.1667 57.885 31.9667 56.7184 33.3C55.985 34.2 55.6017 34.65 55.5684 34.65C54.835 34.65 54.1684 34.3667 53.5684 33.8C53.0017 33.2333 52.7184 32.55 52.7184 31.75C52.7184 31.35 52.785 30.8167 52.9184 30.15C53.0517 29.4833 53.2017 28.7833 53.3684 28.05C53.435 27.7833 53.5017 27.4833 53.5684 27.15C53.6684 26.8167 53.7684 26.4333 53.8684 26C53.935 25.6667 54.0017 25.3 54.0684 24.9C54.1684 24.5 54.3517 23.9833 54.6184 23.35C54.885 22.6833 55.2684 21.7667 55.7684 20.6C55.9017 20.1667 55.9684 19.7167 55.9684 19.25C55.9684 19.0167 55.9517 18.8 55.9184 18.6C55.885 18.3667 55.8684 18.2167 55.8684 18.15C55.8684 17.65 56.1017 17.2333 56.5684 16.9C57.0684 16.5333 57.6184 16.35 58.2184 16.35C59.085 16.35 59.735 16.6667 60.1684 17.3C60.6017 17.9 60.8184 18.5333 60.8184 19.2C60.8184 19.7667 60.685 20.3167 60.4184 20.85L59.8684 22.2C59.735 22.5 59.485 23.05 59.1184 23.85C58.785 24.6167 58.6184 25.0833 58.6184 25.25C58.6184 25.35 58.6517 25.4 58.7184 25.4H58.7684C58.935 25.4 59.2017 25.2167 59.5684 24.85C60.635 23.85 61.9184 22.8167 63.4184 21.75C64.9517 20.65 66.0517 20 66.7184 19.8C66.985 19.8 67.335 19.9333 67.7684 20.2C68.2017 20.4667 68.585 20.8333 68.9184 21.3C69.2517 21.7333 69.4184 22.2167 69.4184 22.75L69.3684 23.15C69.335 23.2833 69.185 23.85 68.9184 24.85C68.685 25.85 68.5017 26.4333 68.3684 26.6C69.0017 25.8667 70.1017 24.9667 71.6684 23.9C73.235 22.8 74.385 22.2333 75.1184 22.2C76.2184 22.2 76.935 22.65 77.2684 23.55C77.6017 24.45 77.835 25.7667 77.9684 27.5C78.1017 29.1333 78.285 30.2333 78.5184 30.8C78.585 31 78.8184 31.1667 79.2184 31.3C79.6184 31.4333 79.935 31.6 80.1684 31.8C80.435 31.9667 80.5684 32.3167 80.5684 32.85C80.5684 33.5833 80.235 34.1 79.5684 34.4C78.935 34.7 78.1684 34.85 77.2684 34.85Z" fill="#FF7262"/>
<path d="M82.9852 34.95C82.8852 34.75 82.6018 34.4833 82.1352 34.15C81.6685 33.8167 81.4352 33.6167 81.4352 33.55C81.4352 33.4167 81.3518 33.2333 81.1852 33C81.0518 32.7333 80.9185 32.5 80.7852 32.3C80.5185 32.0333 80.7018 31.1667 81.3352 29.7C81.9685 28.2333 82.8185 26.5 83.8852 24.5C84.0852 24.3 84.3352 23.95 84.6352 23.45C84.9685 22.95 85.1852 22.6667 85.2852 22.6C85.2852 22.4667 85.3352 22.35 85.4352 22.25C85.5352 22.1167 85.6518 22.05 85.7852 22.05L86.1852 21.25C86.3185 20.95 86.9685 20.2333 88.1352 19.1C89.3018 17.9667 90.2185 17.2 90.8852 16.8C91.5185 16.3667 92.2018 16.15 92.9352 16.15C93.7352 16.15 94.4185 16.3833 94.9852 16.85L96.3352 18C97.3352 18.8333 97.9018 19.3167 98.0352 19.45L99.8852 21.1L99.0352 23.6C98.7352 24.5 98.5852 25.35 98.5852 26.15C98.5852 27.4167 98.9352 28.6 99.6352 29.7C99.8018 30.0667 100.018 30.35 100.285 30.55C100.585 30.75 100.968 30.8833 101.435 30.95C102.168 31.0833 102.535 31.45 102.535 32.05C102.535 32.7833 102.402 33.3333 102.135 33.7C101.868 34.0667 101.552 34.3 101.185 34.4C100.652 34.4667 100.285 34.5 100.085 34.5C99.1185 34.5 98.2352 34.25 97.4352 33.75C96.6352 33.25 95.9352 32.4 95.3352 31.2C95.2018 31 95.0185 30.6333 94.7852 30.1C94.5852 29.5667 94.4685 29.2 94.4352 29C94.2018 29.3333 93.8185 29.7667 93.2852 30.3C89.8518 33.7667 87.0685 35.5 84.9352 35.5C84.2018 35.5 83.5518 35.3167 82.9852 34.95ZM85.7352 30.8C86.2685 30.8667 87.3018 30.2667 88.8352 29C89.0018 28.8667 89.1852 28.7167 89.3852 28.55C89.5852 28.35 89.8018 28.15 90.0352 27.95C90.9685 27.1833 91.6852 26.55 92.1852 26.05C92.7185 25.5167 93.2518 24.8833 93.7852 24.15L94.8852 22.35C94.5518 21.6167 94.2518 21.1333 93.9852 20.9C93.7185 20.6333 93.4518 20.5 93.1852 20.5C92.5185 20.5 91.6852 21.1 90.6852 22.3C89.6852 23.4667 88.4852 25.25 87.0852 27.65C86.7185 28.25 86.4185 28.8833 86.1852 29.55C85.9518 30.1833 85.8018 30.6 85.7352 30.8Z" fill="#1ABCFE"/>
<path d="M145.109 16.9C145.009 17.0333 144.959 17.2 144.959 17.4C144.959 17.6 145.026 17.7167 145.159 17.75C145.092 17.95 144.976 18.3167 144.809 18.85C144.642 19.3833 144.459 19.95 144.259 20.55C144.159 21.75 143.759 23.2333 143.059 25C142.392 26.7333 141.759 28.1167 141.159 29.15C140.992 29.15 140.859 29.1833 140.759 29.25C140.659 29.2833 140.676 29.3167 140.809 29.35C140.809 29.5167 140.626 29.8333 140.259 30.3C140.159 30.3667 139.942 30.6167 139.609 31.05C139.309 31.45 139.092 31.7 138.959 31.8C138.926 32.0333 138.826 32.2333 138.659 32.4C138.492 32.5333 138.342 32.6 138.209 32.6C138.209 32.6 138.176 32.6167 138.109 32.65C138.076 32.65 138.059 32.7 138.059 32.8C137.459 33.6667 136.259 34.85 134.459 36.35C132.692 37.8833 131.192 38.9 129.959 39.4C129.626 39.6333 129.226 39.85 128.759 40.05C128.326 40.25 128.026 40.3833 127.859 40.45C127.626 40.65 126.376 40.85 124.109 41.05C123.776 41.0833 123.409 41.1167 123.009 41.15C122.609 41.1833 122.209 41.2333 121.809 41.3C121.609 41.3333 121.276 41.35 120.809 41.35C119.742 41.35 118.342 41.1333 116.609 40.7C116.176 40.5667 115.859 40.4167 115.659 40.25C115.459 40.0833 115.226 39.8333 114.959 39.5C114.726 39.2 114.542 38.9667 114.409 38.8C113.976 38.1667 113.759 37.45 113.759 36.65C113.759 36.0833 113.876 35.6167 114.109 35.25C114.376 34.85 114.776 34.6 115.309 34.5H115.459C115.592 34.5 115.859 34.5667 116.259 34.7C116.259 33.7333 116.376 32.85 116.609 32.05C116.909 30.6833 117.842 27.75 119.409 23.25L120.009 21.55C120.242 20.9833 120.576 19.9167 121.009 18.35C121.376 17.1167 121.776 15.85 122.209 14.55C122.676 13.25 123.009 12.4333 123.209 12.1C123.309 11.8333 123.409 11.4667 123.509 11C124.009 9.3 124.509 7.83333 125.009 6.6L125.359 4.95L124.809 4.7C124.509 4.8 124.242 4.85 124.009 4.85C123.842 4.85 123.659 4.8 123.459 4.7C123.159 4.8 122.742 4.63333 122.209 4.2C121.709 3.76666 121.426 3.38333 121.359 3.05C121.292 2.95 121.242 2.8 121.209 2.6C121.209 2.4 121.209 2.26666 121.209 2.2C121.242 1.96666 121.642 1.71666 122.409 1.45C123.176 1.15 124.126 0.899998 125.259 0.699998C126.392 0.499999 127.476 0.399999 128.509 0.399999C128.976 0.399999 129.326 0.416666 129.559 0.449999C130.392 0.516665 131.426 0.716664 132.659 1.05C133.892 1.35 135.009 1.68333 136.009 2.05C137.109 2.45 138.276 3.15 139.509 4.15C140.776 5.15 141.892 6.31666 142.859 7.65C143.859 8.98333 144.526 10.35 144.859 11.75C144.959 12.1833 145.059 12.7833 145.159 13.55C145.259 14.3167 145.309 15 145.309 15.6C145.309 16.3 145.242 16.7333 145.109 16.9ZM140.059 19.85C140.359 18.45 140.509 17.15 140.509 15.95C140.509 12.5167 139.276 9.75 136.809 7.65C136.109 7.05 134.959 6.4 133.359 5.7C131.792 5 130.892 4.68333 130.659 4.75C130.492 4.78333 130.059 5.71667 129.359 7.55C128.692 9.38333 127.976 11.4167 127.209 13.65L124.959 19.95C124.826 20.4833 124.676 20.9833 124.509 21.45C124.342 21.9167 124.209 22.3333 124.109 22.7C123.676 23.9333 123.459 24.6333 123.459 24.8C122.492 26.3 121.776 28.8333 121.309 32.4C121.242 32.6 121.059 33.3667 120.759 34.7C120.526 35.8 120.359 36.3333 120.259 36.3L120.209 36.75C120.809 37.0167 121.392 37.1167 121.959 37.05C122.159 37.0167 122.426 36.9833 122.759 36.95C123.126 36.9167 123.392 36.9 123.559 36.9C124.559 36.8333 125.292 36.75 125.759 36.65C126.259 36.5833 126.676 36.4167 127.009 36.15C128.476 35.15 129.659 34.3 130.559 33.6C131.492 32.8667 132.059 32.4 132.259 32.2C132.326 32.0333 132.676 31.8333 133.309 31.6L134.709 30.15C135.542 29.25 136.076 28.7167 136.309 28.55C136.342 28.3167 136.392 28.0833 136.459 27.85C136.559 27.5833 136.609 27.3833 136.609 27.25C137.009 26.8167 137.609 25.7833 138.409 24.15C139.209 22.4833 139.759 21.05 140.059 19.85ZM152.193 36C150.293 36 148.76 35.4667 147.593 34.4C146.426 33.3333 145.843 31.8167 145.843 29.85C145.843 29.0833 145.893 28.2333 145.993 27.3C146.06 26.5 146.376 25.4 146.943 24C147.543 22.6 148.343 21.2333 149.343 19.9C150.376 18.5667 151.576 17.5833 152.943 16.95C153.576 16.65 154.11 16.45 154.543 16.35C154.976 16.2167 155.476 16.15 156.043 16.15C157.41 16.15 158.51 16.4 159.343 16.9C160.21 17.4 160.81 17.9667 161.143 18.6C161.51 19.2333 161.693 19.7833 161.693 20.25V20.5V20.65C161.693 21.05 161.46 21.7833 160.993 22.85C160.526 23.9167 159.776 24.9167 158.743 25.85C157.743 26.7833 156.443 27.3 154.843 27.4C154.043 27.4 153.26 27.3333 152.493 27.2C151.76 27.0333 151.293 26.95 151.093 26.95C150.593 26.95 150.276 27.1333 150.143 27.5C150.01 27.8667 149.943 28.4833 149.943 29.35C150.043 30.2833 150.293 30.9333 150.693 31.3C151.126 31.6667 151.743 31.85 152.543 31.85C152.943 31.85 153.41 31.7333 153.943 31.5C154.476 31.2333 155.11 30.8167 155.843 30.25C156.243 29.9167 156.56 29.6833 156.793 29.55C157.026 29.4167 157.31 29.35 157.643 29.35C157.943 29.35 158.293 29.55 158.693 29.95C159.093 30.35 159.31 30.7333 159.343 31.1C159.276 31.5 158.91 32.1 158.243 32.9C157.576 33.7 156.71 34.4167 155.643 35.05C154.576 35.6833 153.426 36 152.193 36ZM153.943 23.95C154.576 23.95 155.01 23.8833 155.243 23.75C155.576 23.5833 156.076 23.1667 156.743 22.5C157.443 21.8 157.81 21.3167 157.843 21.05C157.843 20.7167 157.693 20.45 157.393 20.25C157.126 20.0167 156.743 19.8667 156.243 19.8H155.693C155.26 19.8 154.626 20.1667 153.793 20.9C152.993 21.6 152.293 22.4167 151.693 23.35C151.726 23.5167 151.976 23.6667 152.443 23.8C152.91 23.9 153.41 23.95 153.943 23.95ZM167.742 36.75C166.942 36.75 166.109 36.5833 165.242 36.25C164.409 35.9167 163.692 35.5167 163.092 35.05C162.526 34.55 162.242 34.1 162.242 33.7C162.242 33.3 162.426 33.05 162.792 32.95L163.042 32.75C163.109 32.7167 163.242 32.7 163.442 32.7C163.576 32.6667 163.742 32.6833 163.942 32.75C164.142 32.7833 164.309 32.8 164.442 32.8C164.676 32.8667 165.026 32.9333 165.492 33L166.792 33.15C167.459 33.15 168.076 33.0833 168.642 32.95C169.242 32.8167 169.542 32.6667 169.542 32.5C169.542 32.4 169.409 32.2333 169.142 32C168.876 31.7667 168.592 31.65 168.292 31.65C168.292 31.5167 167.776 31.0667 166.742 30.3C166.176 29.8667 165.626 29.4333 165.092 29C164.592 28.5667 164.342 28.25 164.342 28.05L164.392 27.95V27.7C164.159 27.7 163.942 27.3833 163.742 26.75C163.542 26.1167 163.442 25.5 163.442 24.9C163.442 23.7667 163.942 22.5167 164.942 21.15C165.942 19.7833 167.176 18.55 168.642 17.45C170.142 16.35 171.559 15.6 172.892 15.2C173.392 14.9667 174.126 14.85 175.092 14.85C175.726 14.85 176.159 14.9167 176.392 15.05L176.792 14.95C177.192 14.95 177.709 15.2833 178.342 15.95C178.976 16.6167 179.376 17.15 179.542 17.55C179.542 18.65 179.509 19.5333 179.442 20.2C179.376 20.8667 179.209 21.2 178.942 21.2C178.909 21.2 178.859 21.2167 178.792 21.25C178.726 21.2833 178.692 21.3667 178.692 21.5C178.692 21.9667 178.276 22.4833 177.442 23.05C176.642 23.6167 175.909 23.9 175.242 23.9L175.042 23.85C174.842 23.8167 174.542 23.6167 174.142 23.25C173.776 22.8833 173.592 22.5167 173.592 22.15C173.592 22.05 173.792 21.7833 174.192 21.35C174.592 20.9167 174.926 20.5 175.192 20.1C175.492 19.6667 175.642 19.2167 175.642 18.75C175.642 18.5833 175.576 18.4833 175.442 18.45C175.342 18.3833 175.126 18.35 174.792 18.35C172.959 19.1833 171.642 19.9667 170.842 20.7C170.742 20.9 170.642 21.05 170.542 21.15C170.476 21.25 170.376 21.3 170.242 21.3C170.242 21.2667 170.226 21.25 170.192 21.25C170.126 21.25 169.909 21.45 169.542 21.85C169.176 22.2167 168.826 22.65 168.492 23.15C168.192 23.65 168.009 24.1167 167.942 24.55L167.842 24.7V24.95C167.809 25.0167 167.792 25.15 167.792 25.35C167.792 25.65 167.926 25.9667 168.192 26.3C168.459 26.6 168.992 27.0333 169.792 27.6C171.292 28.7333 172.309 29.5833 172.842 30.15C173.409 30.6833 173.759 31.1667 173.892 31.6C174.192 32.2 174.342 32.7333 174.342 33.2C174.342 34.3333 173.742 35.2167 172.542 35.85C171.376 36.45 169.776 36.75 167.742 36.75ZM188.373 15.2C188.273 15.3 188.173 15.35 188.073 15.35C187.939 15.35 187.723 15.25 187.423 15.05C187.089 15.0167 186.639 14.7333 186.073 14.2C185.539 13.6667 185.273 13.3167 185.273 13.15C185.239 12.75 185.273 12.1833 185.373 11.45C185.473 10.6833 185.656 10 185.923 9.4C186.223 8.8 186.606 8.48333 187.073 8.45C187.306 8.48333 187.623 8.56667 188.023 8.7C188.423 8.8 188.873 8.95 189.373 9.15C190.006 10.4167 190.323 11.5 190.323 12.4C190.323 13.7333 189.673 14.6667 188.373 15.2ZM183.773 35.95C182.973 35.95 182.273 35.5333 181.673 34.7C181.106 33.8667 180.756 32.8333 180.623 31.6C180.756 30.3667 180.856 29.4667 180.923 28.9C181.289 27.2667 181.739 25.35 182.273 23.15C182.839 20.9167 183.173 19.6833 183.273 19.45C183.439 19.15 183.706 19 184.073 19C184.439 19 184.839 19.15 185.273 19.45C185.739 19.7167 186.123 20.1 186.423 20.6C186.689 20.9667 186.823 21.3833 186.823 21.85C186.823 22.55 186.489 24.0167 185.823 26.25C185.356 27.9167 185.056 29.1 184.923 29.8C184.789 30.5 184.739 31.25 184.773 32.05C184.639 33.55 184.506 34.5833 184.373 35.15C184.239 35.7167 184.039 35.9833 183.773 35.95ZM194.287 45.75C193.32 45.75 192.354 45.4833 191.387 44.95C190.42 44.45 189.62 43.8167 188.987 43.05C188.354 42.2833 188.037 41.5833 188.037 40.95C188.037 40.3167 188.17 39.85 188.437 39.55C188.704 39.2833 189.037 39.15 189.437 39.15C189.737 39.15 190.054 39.2667 190.387 39.5C190.72 39.7667 191.104 40.1333 191.537 40.6C191.97 41.0333 192.354 41.3667 192.687 41.6C193.02 41.8667 193.337 42 193.637 42C194.77 42 195.637 41.2833 196.237 39.85C196.837 38.4167 197.454 36.3833 198.087 33.75L198.787 30.75L198.887 30.4C198.887 30.3667 198.87 30.3667 198.837 30.4C198.804 30.4 198.77 30.3833 198.737 30.35C198.204 30.75 197.154 31.2 195.587 31.7C194.02 32.2 192.704 32.45 191.637 32.45C191.004 32.45 190.437 32.1167 189.937 31.45C189.47 30.7833 189.237 29.9167 189.237 28.85V28.55C189.304 28.4167 189.687 27.4167 190.387 25.55C191.087 23.6833 191.604 22.7833 191.937 22.85C192.037 22.85 192.187 22.6667 192.387 22.3C192.62 21.9 192.737 21.6333 192.737 21.5C192.77 21.4 192.954 21.2167 193.287 20.95C193.654 20.65 193.937 20.4167 194.137 20.25L195.437 19.25C196.637 18.15 197.704 17.3333 198.637 16.8C199.57 16.2333 200.42 15.9167 201.187 15.85L201.687 15.9C201.787 15.9 201.97 15.9167 202.237 15.95C202.537 15.95 203.054 16.0833 203.787 16.35C204.52 16.65 205.27 17.3833 206.037 18.55C206.804 19.7167 207.22 20.7333 207.287 21.6C207.22 22.3667 207.054 23.1167 206.787 23.85C206.52 24.55 206.254 24.9 205.987 24.9C205.52 24.9 205.17 25.0167 204.937 25.25C204.704 25.4833 204.487 25.8667 204.287 26.4C203.92 27.1667 203.67 27.6333 203.537 27.8L202.737 31.65L202.037 34.85C201.637 36.4167 201.22 37.75 200.787 38.85C200.62 40.05 200.17 41.1667 199.437 42.2C198.737 43.2667 197.904 44.1167 196.937 44.75C196.004 45.3833 195.12 45.7167 194.287 45.75ZM194.137 28.5C194.77 28.5 195.72 28.25 196.987 27.75C198.287 27.2167 199.087 26.7333 199.387 26.3C199.554 26.1 199.87 25.6667 200.337 25C200.837 24.3 201.387 23.7667 201.987 23.4C202.187 23.3 202.37 23.1167 202.537 22.85C202.737 22.5833 202.837 22.3333 202.837 22.1V22C202.804 21.8667 202.704 21.6333 202.537 21.3C202.37 20.9667 202.12 20.65 201.787 20.35C201.487 20.05 201.137 19.9 200.737 19.9C200.404 19.9667 199.62 20.5667 198.387 21.7C197.187 22.8333 196.054 24.0333 194.987 25.3C193.954 26.5667 193.437 27.45 193.437 27.95C193.437 28.3167 193.67 28.5 194.137 28.5ZM223.85 34.5C223.35 34.5 222.85 34.3667 222.35 34.1C221.85 33.8333 221.45 33.4333 221.15 32.9L220.9 32.4C220.5 31.2667 220.3 30.1667 220.3 29.1V26.9C220.3 26.5333 220.267 26.35 220.2 26.35C219.933 26.35 218.783 27.4333 216.75 29.6C215.317 31.1 214.067 32.2667 213 33.1C211.967 33.9 211.25 34.3 210.85 34.3C210.717 34.3 210.4 34.1833 209.9 33.95C209.4 33.6833 209.083 33.4833 208.95 33.35C208.717 33.1167 208.567 32.8333 208.5 32.5C208.433 32.1667 208.4 31.5333 208.4 30.6C208.4 29.5333 208.617 28.3333 209.05 27C209.483 25.6333 210.217 23.8167 211.25 21.55C211.517 21.0833 211.783 20.5167 212.05 19.85C212.817 18.1167 213.533 16.9167 214.2 16.25C214.467 16.25 214.65 16.2667 214.75 16.3C215.183 16.3333 215.683 16.5333 216.25 16.9C216.85 17.2667 217.217 17.75 217.35 18.35C217.35 18.9167 217.267 19.4833 217.1 20.05C216.933 20.6167 216.55 21.3167 215.95 22.15C215.583 22.65 215.1 23.7333 214.5 25.4C214.333 25.6667 214.1 26.0833 213.8 26.65C213.533 27.1833 213.4 27.4833 213.4 27.55C213.433 27.5833 213.533 27.5167 213.7 27.35C213.867 27.15 214.033 26.9667 214.2 26.8L215.55 25.45C218.183 22.8167 220.217 21.4667 221.65 21.4C222.383 21.4 223.033 21.7833 223.6 22.55C224.167 23.3167 224.45 24.2333 224.45 25.3C224.45 25.5 224.417 26.0667 224.35 27V29.85C225.117 29.65 225.7 29.4667 226.1 29.3C226.933 29 227.8 28.8167 228.7 28.75C228.633 29.3167 228.317 30.0667 227.75 31C227.217 31.9333 226.583 32.75 225.85 33.45C225.117 34.15 224.45 34.5 223.85 34.5Z" fill="white"/>
</svg>
